<?xml version="1.0" encoding="UTF-8"?><svg id="Layer_2" xmlns="http://www.w3.org/2000/svg" viewBox="0 0 619.25 619.29"><defs><style>.cls-1{fill:#71b644;}</style></defs><g id="Layer_1-2"><path class="cls-1" d="M547.24,507.93c10.05-10.51,9.76-19.89-.06-30.89-10.47-11.78-17.15-25.13-19-40.92-4.46-37.73,25.59-73.27,63.64-75,2.83-.13,5.64-.15,8.47-.36,9.35-.65,15.79-6.59,16.89-15.88,2.64-22.53,2.75-45.06.42-67.61-1.1-10.6-7.79-16.53-19.3-16.64-19.7-.23-36.59-7.03-50.59-20.82-25.51-25.13-26.77-65.54-3.04-92.4,1.06-1.22,2.11-2.49,3.29-3.55,10.89-9.75,10.92-20.33.53-31.44-2.3-2.47-4.16-5.38-6.21-8.07l-26.52-26.52c-3.29-2.58-6.63-5.11-9.9-7.71-9.42-7.52-17.63-7.75-26.39.55-14.27,13.47-30.7,21.16-50.48,21.01-34.88-.3-65.2-29.35-67.12-64.29-.15-2.81-.19-5.64-.38-8.45-.61-8.93-6.5-15.62-15.39-16.7-23.06-2.83-46.22-3.02-69.34-.46-9.97,1.1-16.05,7.9-16.05,18.54,0,17.36-4.69,32.98-15.88,46.41-25.36,30.38-66.41,31.69-96.3,8.3-2.85-2.22-5.55-4.67-8.3-7.03-7.66-6.52-14.74-6.84-22.99-.87-4.37,3.19-8.59,6.57-12.9,9.86l-26.5,26.5c-1.67,2.26-3.17,4.65-5.03,6.71-10.75,12.1-10.75,21.22.4,33.3,10.49,11.34,16.34,24.66,18.05,40.01,4.14,37.46-25.87,72.82-63.53,74.64-3.02.15-6.04.17-9.06.4-8.97.7-15.5,6.63-16.53,15.56-2.66,22.72-2.85,45.46-.47,68.2,1.1,10.35,7.79,16.24,18.94,16.32,19.93.17,36.99,7.05,51.14,21.03,25.36,25.06,26.48,65.67,2.62,92.44-.53.61-1.03,1.25-1.65,1.77-13.85,12.8-12.12,22.63-.04,34.97,12.25,12.5,24.47,25.06,37.18,37.1,12.78,12.1,20.06,11.78,33.23-.13,22.38-20.23,53.12-24.49,78.93-9.76,21.16,12.08,32.62,31.1,35.35,55.32.32,3.02.21,6.04.44,9.06.65,8.93,6.63,15.54,15.48,16.62,23.1,2.83,46.26,2.94,69.38.42,9.88-1.1,15.9-8,15.92-18.71.02-16.24,4.01-31.12,14.04-44.02,25.93-33.4,72.99-36.17,103.71-6.21,9.97,9.76,18.05,10.75,28.34,1.35,14.7-13.43,28.78-27.6,42.57-41.98ZM434.41,437.03c-.82.87-1.71,1.71-2.6,2.51-.87.87-1.79,1.71-2.72,2.51-16.87,15.39-36.19,27.15-56.33,34.42-1.1.42-2.22.82-3.32,1.2-36.74,13.05-76.92,13.66-114,1.84-.21-.04-.42-.13-.61-.19-33.34-10.37-63.85-31.67-86.19-60.64-.93-1.18-1.81-2.36-2.7-3.59-.76-.97-1.5-2.01-2.2-3.04-1.84-2.64-3.61-5.3-5.3-8-1.58-2.47-3.06-5-4.5-7.58-.72-1.27-1.41-2.55-2.09-3.86-15.12-28.59-22.95-62.22-20.08-98.71,3.32-42.33,22.59-80.91,51.56-109.88l.34-.34c.93-.93,1.84-1.84,2.79-2.7,1.06-1.01,2.11-1.98,3.19-2.98,3.23-2.94,6.57-5.76,9.99-8.47,1.14-.89,2.3-1.79,3.46-2.66,2.3-1.71,4.64-3.38,6.99-5.01.09-.04.13-.08.21-.13,1.05-.72,2.09-1.41,3.17-2.07.63-.42,1.24-.82,1.9-1.22,1.22-.8,2.49-1.56,3.78-2.3,1.25-.78,2.53-1.52,3.82-2.22,26.12-14.76,56.06-23.12,87.35-22.74,18.92.21,37.18,3.32,54.26,8.91,2.77.86,5.49,1.82,8.17,2.85,1.35.51,2.68,1.04,4.03,1.58,1.27.51,2.51,1.04,3.74,1.58,1.04.44,2.07.89,3.1,1.37,1.05.47,2.11.97,3.12,1.48,1.63.74,3.21,1.52,4.79,2.34,1.2.65,2.39,1.29,3.57,1.92,1.2.65,2.41,1.35,3.59,2.03.7.36,1.37.78,2.09,1.2,1.06.63,2.11,1.27,3.14,1.92,1.48.93,2.96,1.86,4.39,2.83,1.08.7,2.11,1.39,3.15,2.13,1.22.85,2.43,1.71,3.61,2.6,41.78,30.55,69.68,78.63,72.65,133.55.91,16.91-.51,33.15-3.93,48.44-.21,1.14-.46,2.28-.76,3.38-.44,1.84-.91,3.61-1.39,5.41-.32,1.25-.68,2.49-1.06,3.72-1.14,3.84-2.41,7.64-3.8,11.4-.57,1.46-1.1,2.91-1.69,4.35-8.17,20.21-19.8,38.26-33.7,53.59-.97,1.1-1.96,2.18-3.02,3.23-.85.93-1.75,1.84-2.66,2.74-.44.44-.87.87-1.33,1.29Z"/><path class="cls-1" d="M409.73,323.68c-.19-5.15.26-10.38.03-15.53-4.39-98.04-130.01-130.51-179.25-47.8-11.66,19.58-14.65,41.34-13.64,63.9,3.01-1.82,5.65-6.46,8.62-8.01,3.18-1.66,18.14-5.71,21.57-5.54,13.24.63,25.11,12.59,26.22,25.66,1.72,20.19-1.34,42.76,0,63.2-.95,13.32-15.45,27.09-29.01,25.6-2.54-.28-15.91-4.21-18.38-5.31-2.8-1.24-15.93-15.25-18.28-18.38-5.92-7.9-9.31-17.37-9.94-27.28-1.3-20.5-1.02-48.76.03-69.39,2.5-49.13,35.57-92.25,82.9-106.03,72.93-21.23,144.75,31.34,148.34,106.56.98,20.57,1.3,48.43,0,68.85-.74,11.73-5.1,21.9-12.7,30.72-2.15,2.49-13.36,13.98-15.51,14.94-2.94,1.31-17.77,5.46-20.57,5.36-13.2-.47-25.1-12.16-26.8-25.11,1.31-20.61-1.76-43.39-.03-63.74,1.11-13.03,13.03-25.03,26.22-25.66,3.5-.17,17.85,3.72,21.17,5.37,3.45,1.72,5.45,6.26,9.02,7.62Z"/></g></svg>