<?xml version="1.0" encoding="UTF-8"?><svg id="Layer_2" xmlns="http://www.w3.org/2000/svg" viewBox="0 0 594.1 152.7"><defs><style>.cls-1{fill:#fff;}</style></defs><g id="Layer_1-2"><path class="cls-1" d="M3.29,152.7c-3.33,0-3.81-1.42-2.85-4.99L38.01,4.99c1.19-3.8,3.33-4.99,7.14-4.99h31.63c3.81,0,6.18,1.19,7.14,4.99l37.58,142.73c.95,3.56.48,4.99-2.85,4.99h-22.83c-3.33,0-4.52-1.19-5-4.99l-6.66-26.12h-46.38l-6.66,26.12c-.71,3.8-1.67,4.99-5,4.99H3.29ZM43.48,97.37h35.2L61.56,28.74h-.95l-17.13,68.63Z"/><path class="cls-1" d="M152.65,152.7c-3.33,0-4.99-1.19-4.99-4.99V4.99c0-3.8,1.67-4.99,4.99-4.99h58.04c24.74,0,39.01,13.77,39.01,38.71v22.8c0,24.94-14.27,38.71-39.01,38.71h-29.97c-1.9,0-2.85.71-2.85,2.61v44.89c0,3.8-1.67,4.99-5,4.99h-20.22ZM205.7,73.86c10.23,0,13.79-4.04,13.79-13.77v-19.95c0-9.97-3.57-14.01-13.79-14.01h-25.21c-1.67,0-2.62.71-2.62,2.61v42.51c0,1.9.95,2.61,2.62,2.61h25.21Z"/><path class="cls-1" d="M278.71,152.7c-3.33,0-4.99-1.19-4.99-4.99V4.99c0-3.8,1.66-4.99,4.99-4.99h58.04c24.74,0,39.01,13.77,39.01,38.71v22.8c0,24.94-14.27,38.71-39.01,38.71h-29.97c-1.9,0-2.85.71-2.85,2.61v44.89c0,3.8-1.67,4.99-5,4.99h-20.22ZM331.75,73.86c10.23,0,13.79-4.04,13.79-13.77v-19.95c0-9.97-3.57-14.01-13.79-14.01h-25.21c-1.67,0-2.62.71-2.62,2.61v42.51c0,1.9.95,2.61,2.62,2.61h25.21Z"/><path class="cls-1" d="M404.77,152.7c-3.33,0-4.99-1.19-4.99-4.99V4.99c0-3.8,1.66-4.99,4.99-4.99h20.22c3.33,0,5,1.19,5,4.99v118.74c0,1.9.95,2.61,2.85,2.61h50.19c3.57,0,4.76,1.9,4.76,5.22v16.15c0,3.32-1.19,4.99-4.76,4.99h-78.25Z"/><path class="cls-1" d="M511.56,152.7c-3.33,0-4.99-1.19-4.99-4.99V4.99c0-3.8,1.66-4.99,4.99-4.99h77.78c3.57,0,4.76,1.66,4.76,4.99v16.15c0,3.32-1.19,4.99-4.76,4.99h-49.71c-1.9,0-2.85.71-2.85,2.61v30.87c0,1.9.95,2.61,2.85,2.61h40.67c3.57,0,5,1.66,5,4.99v16.15c0,3.32-1.43,4.99-5,4.99h-40.67c-1.9,0-2.85.71-2.85,2.61v33.01c0,1.9.95,2.61,2.85,2.61h49.71c3.57,0,4.76,1.66,4.76,4.99v16.15c0,3.32-1.19,4.99-4.76,4.99h-77.78Z"/></g></svg>