<?xml version="1.0" encoding="UTF-8"?><svg id="Layer_2" xmlns="http://www.w3.org/2000/svg" viewBox="0 0 713.06 152.7"><defs><style>.cls-1{fill:#fff;}</style></defs><g id="Layer_1-2"><path class="cls-1" d="M4.99,152.7c-3.33,0-4.99-1.19-4.99-4.99V4.99C0,1.19,1.66,0,4.99,0h20.22c3.33,0,5,1.19,5,4.99v118.74c0,1.9.95,2.61,2.85,2.61h50.19c3.57,0,4.76,1.9,4.76,5.23v16.15c0,3.32-1.19,4.99-4.76,4.99H4.99Z"/><path class="cls-1" d="M107.03,152.7c-3.33,0-4.99-1.19-4.99-4.99V4.99c0-3.8,1.67-4.99,4.99-4.99h77.78c3.57,0,4.76,1.66,4.76,4.99v16.15c0,3.33-1.19,4.99-4.76,4.99h-49.71c-1.9,0-2.85.71-2.85,2.61v30.87c0,1.9.95,2.61,2.85,2.61h40.67c3.57,0,5,1.66,5,4.99v16.15c0,3.33-1.43,4.99-5,4.99h-40.67c-1.9,0-2.85.71-2.85,2.61v33.01c0,1.9.95,2.61,2.85,2.61h49.71c3.57,0,4.76,1.66,4.76,4.99v16.15c0,3.32-1.19,4.99-4.76,4.99h-77.78Z"/><path class="cls-1" d="M220.95,152.7c-3.33,0-4.99-1.19-4.99-4.99V4.99c0-3.8,1.67-4.99,4.99-4.99h17.84c4.76,0,6.42,2.85,6.66,3.32l48.05,90.01h.95V4.99c0-3.8,1.67-4.99,5-4.99h19.74c3.33,0,5,1.19,5,4.99v142.73c0,3.8-1.67,4.99-5,4.99h-17.36c-5.23,0-7.37-4.51-7.61-4.75l-47.57-88.35h-.95v88.11c0,3.8-1.67,4.99-5,4.99h-19.74Z"/><path class="cls-1" d="M391.96,152.7c-24.97,0-39.25-13.77-39.25-38.71V38.71c0-24.94,14.27-38.71,39.25-38.71h26.64c24.97,0,39.25,13.77,39.25,38.71v75.28c0,24.94-14.27,38.71-39.25,38.71h-26.64ZM413.61,126.58c10.23,0,14.03-4.04,14.03-14.01V40.14c0-9.97-3.81-14.01-14.03-14.01h-16.89c-10.23,0-13.8,4.04-13.8,14.01v72.43c0,9.97,3.57,14.01,13.8,14.01h16.89Z"/><path class="cls-1" d="M517.54,152.7c-3.09,0-5.23-1.19-5.95-4.99L474.73,5.46c-.95-3.33.71-5.46,4.76-5.46h22.36c3.57,0,5,1.19,5.71,4.99l24.97,116.84h.95l24.97-116.84c.71-3.8,2.14-4.99,5.71-4.99h22.36c3.81,0,5.47,2.14,4.76,5.46l-36.87,142.25c-.95,3.8-2.85,4.99-5.71,4.99h-31.16Z"/><path class="cls-1" d="M647.17,152.7c-24.97,0-39.25-13.77-39.25-38.71V38.71c0-24.94,14.27-38.71,39.25-38.71h26.64c24.97,0,39.25,13.77,39.25,38.71v75.28c0,24.94-14.27,38.71-39.25,38.71h-26.64ZM668.81,126.58c10.23,0,14.03-4.04,14.03-14.01V40.14c0-9.97-3.81-14.01-14.03-14.01h-16.89c-10.23,0-13.8,4.04-13.8,14.01v72.43c0,9.97,3.57,14.01,13.8,14.01h16.89Z"/></g></svg>