<?xml version="1.0" encoding="UTF-8"?><svg id="Layer_2" xmlns="http://www.w3.org/2000/svg" viewBox="0 0 670.48 152.7"><defs><style>.cls-1{fill:#fff;}</style></defs><g id="Layer_1-2"><path class="cls-1" d="M4.99,152.7c-3.33,0-4.99-1.19-4.99-4.99V4.99C0,1.19,1.66,0,4.99,0h20.22c3.33,0,5,1.19,5,4.99v118.74c0,1.9.95,2.61,2.85,2.61h50.19c3.57,0,4.76,1.9,4.76,5.23v16.15c0,3.32-1.19,4.99-4.76,4.99H4.99Z"/><path class="cls-1" d="M136.52,152.7c-24.97,0-39.25-13.77-39.25-38.71v-43.7c0-24.94,14.27-38.71,39.25-38.71h18.79c24.97,0,39.25,13.77,39.25,38.71v30.16c0,3.8-1.67,4.99-4.99,4.99h-59.7c-1.9,0-2.85.71-2.85,2.61v5.22c0,9.74,3.81,13.77,14.03,13.77h48.05c3.81,0,5,1.66,5,5.22v15.67c0,3.56-1.19,4.75-5,4.75h-52.57ZM162.21,85.26c1.9,0,2.62-.71,2.62-2.61v-11.4c0-9.97-3.57-13.77-13.8-13.77h-9.99c-10.23,0-13.8,3.8-13.8,13.77v11.4c0,1.9.95,2.61,2.62,2.61h32.35Z"/><path class="cls-1" d="M215.01,152.7c-3.33,0-5-1.19-5-4.99V36.57c0-3.8,1.67-4.99,5-4.99h20.22c3.33,0,4.99,1.19,4.99,4.99v7.84h.95c3.81-9.26,13.56-12.82,23.31-12.82h7.61c24.97,0,37.34,13.77,37.34,38.71v77.42c0,3.8-1.67,4.99-5.23,4.99h-19.98c-3.33,0-4.99-1.19-4.99-4.99v-76c0-9.97-3.81-14.01-14.03-14.01h-8.56c-13.08,0-16.41,7.84-16.41,18.05v71.96c0,3.8-1.67,4.99-4.99,4.99h-20.22Z"/><path class="cls-1" d="M372.94,152.7c-24.97,0-39.25-13.77-39.25-38.71v-43.7c0-24.94,14.27-38.71,39.25-38.71h21.17c24.74,0,39.25,13.77,39.25,38.71v43.7c0,24.94-14.51,38.71-39.25,38.71h-21.17ZM389.59,126.82c10.23,0,14.03-3.8,14.03-13.77v-41.8c0-9.97-3.81-13.77-14.03-13.77h-12.13c-10.23,0-13.8,3.8-13.8,13.77v41.8c0,9.97,3.57,13.77,13.8,13.77h12.13Z"/><path class="cls-1" d="M449.52,36.57c-.95-3.56.24-4.99,3.57-4.99h20.93c3.33,0,5,1.19,5.71,4.99l20.46,89.3h1.67l19.98-89.3c.71-3.8,2.38-4.99,5.95-4.99h20.93c3.33,0,4.52,1.42,3.57,4.99l-29.97,110.91c-.71,3.56-2.85,5.22-6.42,5.22h-30.21c-3.33,0-5.47-1.66-6.42-5.22l-29.73-110.91Z"/><path class="cls-1" d="M610.06,152.7c-24.97,0-39.25-13.77-39.25-38.71v-43.7c0-24.94,14.27-38.71,39.25-38.71h21.17c24.74,0,39.25,13.77,39.25,38.71v43.7c0,24.94-14.51,38.71-39.25,38.71h-21.17ZM626.71,126.82c10.23,0,14.03-3.8,14.03-13.77v-41.8c0-9.97-3.81-13.77-14.03-13.77h-12.13c-10.23,0-13.8,3.8-13.8,13.77v41.8c0,9.97,3.57,13.77,13.8,13.77h12.13Z"/></g></svg>