<?xml version="1.0" encoding="UTF-8"?><svg id="Layer_2" xmlns="http://www.w3.org/2000/svg" viewBox="0 0 1081.95 152.7"><defs><style>.cls-1{fill:#fff;}</style></defs><g id="Layer_1-2"><path class="cls-1" d="M97.04,3.32c.48-2.14,1.67-3.32,4.52-3.32h35.2c3.33,0,5,1.19,5,4.99v142.73c0,3.8-1.67,4.99-5,4.99h-19.5c-3.33,0-5-1.19-5-4.99V35.15h-.95l-24.26,79.56c-.95,3.09-2.62,4.75-5.95,4.75h-19.98c-3.57,0-5-1.43-5.95-4.75L30.45,34.91h-.95v112.81c0,3.8-.95,4.99-5,4.99H4.99c-2.62,0-4.99-.95-4.99-4.99V4.99C0,1.19,2.38,0,4.99,0h35.44c2.62,0,3.81,1.19,4.52,3.32l25.21,83.83h1.43L97.04,3.32Z"/><path class="cls-1" d="M206.69,147.72c0,3.8-1.67,4.99-5,4.99h-20.22c-3.33,0-5-1.19-5-4.99V4.99c0-3.8,1.67-4.99,5-4.99h20.22c3.33,0,5,1.19,5,4.99v142.73Z"/><path class="cls-1" d="M275.66,152.7c-24.97,0-39.25-13.77-39.25-38.71V38.71c0-24.94,14.27-38.71,39.25-38.71h25.93c24.74,0,39.25,13.77,39.25,38.71v11.16c0,3.56-1.67,5.22-5.23,5.22h-19.98c-3.33,0-5-1.66-5-5.22v-9.74c0-9.97-3.81-14.01-14.03-14.01h-16.17c-9.99,0-13.8,4.04-13.8,14.01v72.43c0,9.97,3.81,14.01,13.8,14.01h16.17c10.23,0,14.03-4.04,14.03-14.01v-9.74c0-3.56,1.67-5.22,5-5.22h19.98c3.57,0,5.23,1.66,5.23,5.22v11.16c0,24.94-14.51,38.71-39.25,38.71h-25.93Z"/><path class="cls-1" d="M371.75,152.7c-3.33,0-4.99-1.19-4.99-4.99V4.99c0-3.8,1.67-4.99,4.99-4.99h56.61c24.74,0,39.48,14.25,39.48,38.95v18.52c0,17.81-7.61,29.92-21.17,35.62v.95l25.45,52.96c2.14,4.04-.71,5.7-4.04,5.7h-19.27c-5.47,0-7.61-.95-9.28-4.99l-23.79-51.3h-15.94c-1.9,0-2.85.71-2.85,2.61v48.69c0,3.8-1.67,4.99-5,4.99h-20.22ZM422.89,72.2c10.23,0,14.75-4.04,14.75-13.54v-18.52c0-9.97-4.52-14.01-14.75-14.01h-23.31c-1.67,0-2.62.71-2.62,2.61v40.85c0,1.9.95,2.61,2.62,2.61h23.31Z"/><path class="cls-1" d="M533.73,152.7c-24.97,0-39.25-13.77-39.25-38.71V38.71c0-24.94,14.27-38.71,39.25-38.71h26.64c24.97,0,39.25,13.77,39.25,38.71v75.28c0,24.94-14.27,38.71-39.25,38.71h-26.64ZM555.37,126.58c10.23,0,14.03-4.04,14.03-14.01V40.14c0-9.97-3.81-14.01-14.03-14.01h-16.89c-10.23,0-13.8,4.04-13.8,14.01v72.43c0,9.97,3.57,14.01,13.8,14.01h16.89Z"/><path class="cls-1" d="M624.34,109.01c0-3.8,1.67-4.99,4.99-4.99h20.22c3.33,0,5,1.19,5,4.99v1.9c0,12.11,4.04,15.67,16.65,15.67h11.18c12.37,0,16.65-3.8,16.65-16.86v-2.85c0-30.16-74.92,3.09-74.92-59.61v-8.31c0-24.7,14.75-38.95,39.48-38.95h23.79c24.97,0,39.72,14.25,39.72,38.95v4.51c0,3.8-1.67,4.99-5,4.99h-20.22c-3.33,0-5-1.19-5-4.99v-1.43c0-12.35-4.04-15.91-16.65-15.91h-9.28c-12.84,0-16.65,3.8-16.65,18.05v4.51c0,25.89,74.92-3.56,74.92,57v8.07c0,24.7-14.75,38.95-39.48,38.95h-25.93c-24.74,0-39.48-14.25-39.48-38.95v-4.75Z"/><path class="cls-1" d="M793.21,152.7c-24.97,0-39.25-13.77-39.25-38.71V38.71c0-24.94,14.27-38.71,39.25-38.71h26.64c24.97,0,39.25,13.77,39.25,38.71v75.28c0,24.94-14.27,38.71-39.25,38.71h-26.64ZM814.85,126.58c10.23,0,14.03-4.04,14.03-14.01V40.14c0-9.97-3.81-14.01-14.03-14.01h-16.89c-10.23,0-13.8,4.04-13.8,14.01v72.43c0,9.97,3.57,14.01,13.8,14.01h16.89Z"/><path class="cls-1" d="M892.62,152.7c-3.33,0-4.99-1.19-4.99-4.99V4.99c0-3.8,1.66-4.99,4.99-4.99h75.88c3.57,0,4.76,1.66,4.76,4.99v16.15c0,3.33-1.19,4.99-4.76,4.99h-47.81c-1.9,0-2.85.71-2.85,2.61v36.81c0,2.14.95,2.85,2.85,2.85h40.67c3.57,0,5,1.66,5,4.99v15.91c0,3.56-1.43,5.22-5,5.22h-40.67c-1.9,0-2.85.71-2.85,2.61v50.58c0,3.8-1.67,4.99-5,4.99h-20.22Z"/><path class="cls-1" d="M1022.01,152.7c-3.57,0-5.23-1.19-5.23-4.99V28.74c0-1.9-.71-2.61-2.62-2.61h-27.12c-3.81,0-5-1.66-5-4.99V4.99c0-3.32,1.19-4.99,5-4.99h89.91c3.57,0,5,1.66,5,4.99v16.15c0,3.33-1.43,4.99-5,4.99h-27.12c-1.9,0-2.85.71-2.85,2.61v118.98c0,3.8-1.67,4.99-4.99,4.99h-19.98Z"/></g></svg>