<?xml version="1.0" encoding="UTF-8"?><svg id="Layer_2" xmlns="http://www.w3.org/2000/svg" viewBox="0 0 583.39 152.7"><defs><style>.cls-1{fill:#fff;}</style></defs><g id="Layer_1-2"><path class="cls-1" d="M4.99,152.7c-3.33,0-4.99-1.19-4.99-4.99V4.99C0,1.19,1.66,0,4.99,0h17.84c4.76,0,6.42,2.85,6.66,3.32l48.05,90.01h.95V4.99c0-3.8,1.67-4.99,5-4.99h19.74c3.33,0,4.99,1.19,4.99,4.99v142.73c0,3.8-1.66,4.99-4.99,4.99h-17.36c-5.23,0-7.37-4.51-7.61-4.75L30.68,59.61h-.95v88.11c0,3.8-1.67,4.99-5,4.99H4.99Z"/><path class="cls-1" d="M181,152.7c-24.97,0-39.25-13.77-39.25-38.71V38.71c0-24.94,14.27-38.71,39.25-38.71h26.64c24.97,0,39.25,13.77,39.25,38.71v75.28c0,24.94-14.27,38.71-39.25,38.71h-26.64ZM202.64,126.58c10.23,0,14.03-4.04,14.03-14.01V40.14c0-9.97-3.81-14.01-14.03-14.01h-16.89c-10.23,0-13.8,4.04-13.8,14.01v72.43c0,9.97,3.57,14.01,13.8,14.01h16.89Z"/><path class="cls-1" d="M280.42,152.7c-3.33,0-4.99-1.19-4.99-4.99V4.99c0-3.8,1.67-4.99,4.99-4.99h20.22c3.33,0,5,1.19,5,4.99v67.68h.48c1.9-5.94,5.47-11.64,7.37-14.72l36.15-52.96c2.38-3.8,4.04-4.99,9.28-4.99h23.31c3.33,0,4.52,2.14,1.9,5.46l-45.19,62.46,50.42,78.85c2.38,3.8.48,5.94-3.81,5.94h-17.36c-5.23,0-8.8-.95-11.18-4.99l-36.39-58.18-14.98,17.57v40.61c0,3.8-1.67,4.99-5,4.99h-20.22Z"/><path class="cls-1" d="M439.54,147.72c0,3.8-1.67,4.99-5,4.99h-20.22c-3.33,0-5-1.19-5-4.99V4.99c0-3.8,1.67-4.99,5-4.99h20.22c3.33,0,5,1.19,5,4.99v142.73Z"/><path class="cls-1" d="M464.75,152.7c-3.33,0-3.81-1.42-2.85-4.99L499.47,4.99c1.19-3.8,3.33-4.99,7.14-4.99h31.63c3.81,0,6.18,1.19,7.14,4.99l37.58,142.73c.95,3.56.48,4.99-2.85,4.99h-22.83c-3.33,0-4.52-1.19-5-4.99l-6.66-26.12h-46.38l-6.66,26.12c-.71,3.8-1.67,4.99-5,4.99h-22.83ZM504.94,97.37h35.2l-17.13-68.63h-.95l-17.13,68.63Z"/></g></svg>