<?xml version="1.0" encoding="UTF-8"?><svg id="Layer_2" xmlns="http://www.w3.org/2000/svg" viewBox="0 0 489.49 152.7"><defs><style>.cls-1{fill:#fff;}</style></defs><g id="Layer_1-2"><path class="cls-1" d="M39.25,152.7c-24.97,0-39.25-13.77-39.25-38.71V38.71C0,13.77,14.27,0,39.25,0h26.64c24.97,0,39.25,13.77,39.25,38.71v75.28c0,24.94-14.27,38.71-39.25,38.71h-26.64ZM60.89,126.58c10.23,0,14.03-4.04,14.03-14.01V40.14c0-9.97-3.81-14.01-14.03-14.01h-16.89c-10.23,0-13.8,4.04-13.8,14.01v72.43c0,9.97,3.57,14.01,13.8,14.01h16.89Z"/><path class="cls-1" d="M139.61,152.7c-3.33,0-4.99-1.19-4.99-4.99V4.99c0-3.8,1.67-4.99,4.99-4.99h58.04c24.74,0,39.01,13.77,39.01,38.71v22.8c0,24.94-14.27,38.71-39.01,38.71h-29.97c-1.9,0-2.85.71-2.85,2.61v44.89c0,3.8-1.67,4.99-5,4.99h-20.22ZM192.65,73.86c10.23,0,13.79-4.04,13.79-13.77v-19.95c0-9.97-3.57-14.01-13.79-14.01h-25.21c-1.67,0-2.62.71-2.62,2.61v42.51c0,1.9.95,2.61,2.62,2.61h25.21Z"/><path class="cls-1" d="M265.67,152.7c-3.33,0-4.99-1.19-4.99-4.99V4.99c0-3.8,1.67-4.99,4.99-4.99h58.04c24.74,0,39.01,13.77,39.01,38.71v22.8c0,24.94-14.27,38.71-39.01,38.71h-29.97c-1.9,0-2.85.71-2.85,2.61v44.89c0,3.8-1.67,4.99-5,4.99h-20.22ZM318.71,73.86c10.23,0,13.79-4.04,13.79-13.77v-19.95c0-9.97-3.57-14.01-13.79-14.01h-25.21c-1.67,0-2.62.71-2.62,2.61v42.51c0,1.9.95,2.61,2.62,2.61h25.21Z"/><path class="cls-1" d="M423.6,152.7c-24.97,0-39.25-13.77-39.25-38.71V38.71c0-24.94,14.27-38.71,39.25-38.71h26.64c24.97,0,39.25,13.77,39.25,38.71v75.28c0,24.94-14.27,38.71-39.25,38.71h-26.64ZM445.25,126.58c10.23,0,14.03-4.04,14.03-14.01V40.14c0-9.97-3.81-14.01-14.03-14.01h-16.89c-10.23,0-13.8,4.04-13.8,14.01v72.43c0,9.97,3.57,14.01,13.8,14.01h16.89Z"/></g></svg>