<?xml version="1.0" encoding="UTF-8"?><svg id="Layer_2" xmlns="http://www.w3.org/2000/svg" viewBox="0 0 1323.36 152.7"><defs><style>.cls-1{fill:#fff;}</style></defs><g id="Layer_1-2"><path class="cls-1" d="M39.25,152.7c-24.97,0-39.25-13.77-39.25-38.71V38.71C0,13.77,14.27,0,39.25,0h25.21c24.74,0,39.01,13.77,39.01,38.71v7.12c0,3.8-1.67,5.22-5,5.22h-20.22c-3.33,0-5-1.43-5-5.22v-5.7c0-9.97-3.57-14.01-13.79-14.01h-15.46c-9.99,0-13.8,4.04-13.8,14.01v72.43c0,9.97,3.81,14.01,13.8,14.01h15.46c10.23,0,13.79-4.04,13.79-14.01v-14.96c0-1.9-.71-2.61-2.62-2.61h-14.27c-3.81,0-5-1.66-5-4.99v-16.15c0-3.32,1.19-4.99,5-4.99h41.62c3.57,0,5.47,1.66,5.47,5.46v39.66c0,24.94-14.27,38.71-39.01,38.71h-25.21Z"/><path class="cls-1" d="M161.74,152.7c-24.97,0-39.25-13.77-39.25-38.71V38.71c0-24.94,14.27-38.71,39.25-38.71h26.64c24.97,0,39.25,13.77,39.25,38.71v75.28c0,24.94-14.27,38.71-39.25,38.71h-26.64ZM183.38,126.58c10.23,0,14.03-4.04,14.03-14.01V40.14c0-9.97-3.81-14.01-14.03-14.01h-16.89c-10.23,0-13.8,4.04-13.8,14.01v72.43c0,9.97,3.57,14.01,13.8,14.01h16.89Z"/><path class="cls-1" d="M293.02,152.7c-24.97,0-39.25-13.77-39.25-38.71V38.71c0-24.94,14.27-38.71,39.25-38.71h26.64c24.97,0,39.25,13.77,39.25,38.71v75.28c0,24.94-14.27,38.71-39.25,38.71h-26.64ZM314.67,126.58c10.23,0,14.03-4.04,14.03-14.01V40.14c0-9.97-3.81-14.01-14.03-14.01h-16.89c-10.23,0-13.8,4.04-13.8,14.01v72.43c0,9.97,3.57,14.01,13.8,14.01h16.89Z"/><path class="cls-1" d="M424.31,152.7c-24.97,0-39.25-13.77-39.25-38.71V38.71c0-24.94,14.27-38.71,39.25-38.71h25.21c24.74,0,39.01,13.77,39.01,38.71v7.12c0,3.8-1.67,5.22-5,5.22h-20.22c-3.33,0-5-1.43-5-5.22v-5.7c0-9.97-3.57-14.01-13.79-14.01h-15.46c-9.99,0-13.8,4.04-13.8,14.01v72.43c0,9.97,3.81,14.01,13.8,14.01h15.46c10.23,0,13.79-4.04,13.79-14.01v-14.96c0-1.9-.71-2.61-2.62-2.61h-14.27c-3.81,0-5-1.66-5-4.99v-16.15c0-3.32,1.19-4.99,5-4.99h41.62c3.57,0,5.47,1.66,5.47,5.46v39.66c0,24.94-14.27,38.71-39.01,38.71h-25.21Z"/><path class="cls-1" d="M522.07,152.7c-3.33,0-4.99-1.19-4.99-4.99V4.99c0-3.8,1.67-4.99,4.99-4.99h20.22c3.33,0,5,1.19,5,4.99v118.74c0,1.9.95,2.61,2.85,2.61h50.19c3.57,0,4.76,1.9,4.76,5.22v16.15c0,3.32-1.19,4.99-4.76,4.99h-78.25Z"/><path class="cls-1" d="M628.86,152.7c-3.33,0-4.99-1.19-4.99-4.99V4.99c0-3.8,1.67-4.99,4.99-4.99h77.78c3.57,0,4.76,1.66,4.76,4.99v16.15c0,3.32-1.19,4.99-4.76,4.99h-49.71c-1.9,0-2.85.71-2.85,2.61v30.87c0,1.9.95,2.61,2.85,2.61h40.67c3.57,0,5,1.66,5,4.99v16.15c0,3.32-1.43,4.99-5,4.99h-40.67c-1.9,0-2.85.71-2.85,2.61v33.01c0,1.9.95,2.61,2.85,2.61h49.71c3.57,0,4.76,1.66,4.76,4.99v16.15c0,3.32-1.19,4.99-4.76,4.99h-77.78Z"/><path class="cls-1" d="M804.62,152.7c-3.33,0-4.99-1.19-4.99-4.99V4.99c0-3.8,1.66-4.99,4.99-4.99h58.04c24.74,0,39.01,13.77,39.01,38.71v22.8c0,24.94-14.27,38.71-39.01,38.71h-29.97c-1.9,0-2.85.71-2.85,2.61v44.89c0,3.8-1.67,4.99-5,4.99h-20.22ZM857.66,73.86c10.23,0,13.79-4.04,13.79-13.77v-19.95c0-9.97-3.57-14.01-13.79-14.01h-25.21c-1.67,0-2.62.71-2.62,2.61v42.51c0,1.9.95,2.61,2.62,2.61h25.21Z"/><path class="cls-1" d="M960.88,147.72c0,3.8-1.67,4.99-5,4.99h-20.22c-3.33,0-5-1.19-5-4.99V4.99c0-3.8,1.67-4.99,5-4.99h20.22c3.33,0,5,1.19,5,4.99v142.73Z"/><path class="cls-1" d="M1042.23,96.66h-.95l-23.79,51.3c-1.67,3.56-3.81,4.75-7.14,4.75h-23.55c-3.09,0-4.76-2.38-3.33-5.22l36.87-72.91-35.68-69.35c-1.43-2.61.24-5.22,3.33-5.22h22.83c3.33,0,6.42,1.19,7.85,4.99l22.6,51.06h.95l22.36-51.06c1.9-3.8,4.28-4.99,7.61-4.99h23.31c3.33,0,4.76,3.09,3.57,5.46l-36.15,69.11,36.87,72.67c1.67,3.09,0,5.46-3.33,5.46h-23.79c-3.09,0-5.47-1.19-6.9-4.75l-23.55-51.3Z"/><path class="cls-1" d="M1126.42,152.7c-3.33,0-4.99-1.19-4.99-4.99V4.99c0-3.8,1.67-4.99,4.99-4.99h77.78c3.57,0,4.76,1.66,4.76,4.99v16.15c0,3.32-1.19,4.99-4.76,4.99h-49.71c-1.9,0-2.85.71-2.85,2.61v30.87c0,1.9.95,2.61,2.85,2.61h40.67c3.57,0,5,1.66,5,4.99v16.15c0,3.32-1.43,4.99-5,4.99h-40.67c-1.9,0-2.85.71-2.85,2.61v33.01c0,1.9.95,2.61,2.85,2.61h49.71c3.57,0,4.76,1.66,4.76,4.99v16.15c0,3.32-1.19,4.99-4.76,4.99h-77.78Z"/><path class="cls-1" d="M1240.35,152.7c-3.33,0-4.99-1.19-4.99-4.99V4.99c0-3.8,1.67-4.99,4.99-4.99h20.22c3.33,0,5,1.19,5,4.99v118.74c0,1.9.95,2.61,2.85,2.61h50.19c3.57,0,4.76,1.9,4.76,5.22v16.15c0,3.32-1.19,4.99-4.76,4.99h-78.25Z"/></g></svg>