<?xml version="1.0" encoding="UTF-8"?><svg id="Layer_2" xmlns="http://www.w3.org/2000/svg" viewBox="0 0 940.67 152.7"><defs><style>.cls-1{fill:#fff;}</style></defs><g id="Layer_1-2"><path class="cls-1" d="M.24,109.01c0-3.8,1.67-4.99,4.99-4.99h20.22c3.33,0,5,1.19,5,4.99v1.9c0,12.11,4.04,15.67,16.65,15.67h11.18c12.37,0,16.65-3.8,16.65-16.86v-2.85c0-30.16-74.92,3.09-74.92-59.61v-8.31C0,14.25,14.75,0,39.48,0h23.79c24.97,0,39.72,14.25,39.72,38.95v4.51c0,3.8-1.67,4.99-5,4.99h-20.22c-3.33,0-5-1.19-5-4.99v-1.43c0-12.35-4.04-15.91-16.65-15.91h-9.28c-12.84,0-16.65,3.8-16.65,18.05v4.51c0,25.89,74.92-3.56,74.92,57v8.07c0,24.7-14.75,38.95-39.48,38.95h-25.93C14.98,152.7.24,138.46.24,113.76v-4.75Z"/><path class="cls-1" d="M127.01,152.7c-3.33,0-3.81-1.42-2.85-4.99L161.73,4.99c1.19-3.8,3.33-4.99,7.14-4.99h31.63c3.81,0,6.18,1.19,7.14,4.99l37.58,142.73c.95,3.56.48,4.99-2.85,4.99h-22.83c-3.33,0-4.52-1.19-5-4.99l-6.66-26.12h-46.38l-6.66,26.12c-.71,3.8-1.67,4.99-5,4.99h-22.83ZM167.2,97.37h35.2l-17.13-68.63h-.95l-17.13,68.63Z"/><path class="cls-1" d="M363.43,3.32c.48-2.14,1.67-3.32,4.52-3.32h35.2c3.33,0,5,1.19,5,4.99v142.73c0,3.8-1.67,4.99-5,4.99h-19.5c-3.33,0-5-1.19-5-4.99V35.15h-.95l-24.26,79.56c-.95,3.09-2.62,4.75-5.95,4.75h-19.98c-3.57,0-5-1.43-5.95-4.75l-24.74-79.8h-.95v112.81c0,3.8-.95,4.99-5,4.99h-19.5c-2.62,0-4.99-.95-4.99-4.99V4.99c0-3.8,2.38-4.99,4.99-4.99h35.44c2.62,0,3.81,1.19,4.52,3.32l25.21,83.83h1.43L363.43,3.32Z"/><path class="cls-1" d="M435.25,109.01c0-3.8,1.67-4.99,4.99-4.99h20.22c3.33,0,5,1.19,5,4.99v1.9c0,12.11,4.04,15.67,16.65,15.67h11.18c12.37,0,16.65-3.8,16.65-16.86v-2.85c0-30.16-74.92,3.09-74.92-59.61v-8.31c0-24.7,14.75-38.95,39.48-38.95h23.79c24.97,0,39.72,14.25,39.72,38.95v4.51c0,3.8-1.67,4.99-5,4.99h-20.22c-3.33,0-5-1.19-5-4.99v-1.43c0-12.35-4.04-15.91-16.65-15.91h-9.28c-12.84,0-16.65,3.8-16.65,18.05v4.51c0,25.89,74.92-3.56,74.92,57v8.07c0,24.7-14.75,38.95-39.48,38.95h-25.93c-24.74,0-39.48-14.25-39.48-38.95v-4.75Z"/><path class="cls-1" d="M665.49,0c3.57,0,5.23,1.19,5.23,4.75v109.24c0,24.94-14.51,38.71-39.25,38.71h-26.16c-24.97,0-39.25-13.77-39.25-38.71V4.99c0-3.8,1.67-4.99,5-4.99h20.22c3.33,0,5,1.19,5,4.99v107.58c0,9.97,3.81,14.01,13.8,14.01h16.41c10.23,0,14.03-4.04,14.03-14.01V4.99c0-3.8,1.67-4.99,5-4.99h19.98Z"/><path class="cls-1" d="M705.44,152.7c-3.33,0-4.99-1.19-4.99-4.99V4.99c0-3.8,1.67-4.99,4.99-4.99h17.84c4.76,0,6.42,2.85,6.66,3.32l48.05,90.01h.95V4.99c0-3.8,1.67-4.99,5-4.99h19.74c3.33,0,5,1.19,5,4.99v142.73c0,3.8-1.67,4.99-5,4.99h-17.36c-5.23,0-7.37-4.51-7.61-4.75l-47.57-88.35h-.95v88.11c0,3.8-1.67,4.99-5,4.99h-19.74Z"/><path class="cls-1" d="M876.45,152.7c-24.97,0-39.25-13.77-39.25-38.71V38.71c0-24.94,14.27-38.71,39.25-38.71h25.21c24.74,0,39.01,13.77,39.01,38.71v7.12c0,3.8-1.67,5.22-5,5.22h-20.22c-3.33,0-5-1.43-5-5.22v-5.7c0-9.97-3.57-14.01-13.79-14.01h-15.46c-9.99,0-13.8,4.04-13.8,14.01v72.43c0,9.97,3.81,14.01,13.8,14.01h15.46c10.23,0,13.79-4.04,13.79-14.01v-14.96c0-1.9-.71-2.61-2.62-2.61h-14.27c-3.81,0-5-1.66-5-4.99v-16.15c0-3.32,1.19-4.99,5-4.99h41.62c3.57,0,5.47,1.66,5.47,5.46v39.66c0,24.94-14.27,38.71-39.01,38.71h-25.21Z"/></g></svg>