<?xml version="1.0" encoding="UTF-8"?><svg id="Layer_2" xmlns="http://www.w3.org/2000/svg" viewBox="0 0 509.6 152.7"><defs><style>.cls-1{fill:#fff;}</style></defs><g id="Layer_1-2"><path class="cls-1" d="M.24,109.01c0-3.8,1.67-4.99,4.99-4.99h20.22c3.33,0,5,1.19,5,4.99v1.9c0,12.11,4.04,15.67,16.65,15.67h11.18c12.37,0,16.65-3.8,16.65-16.86v-2.85c0-30.16-74.92,3.09-74.92-59.61v-8.31C0,14.25,14.75,0,39.48,0h23.79c24.97,0,39.72,14.25,39.72,38.95v4.51c0,3.8-1.67,4.99-5,4.99h-20.22c-3.33,0-5-1.19-5-4.99v-1.43c0-12.35-4.04-15.91-16.65-15.91h-9.28c-12.84,0-16.65,3.8-16.65,18.05v4.51c0,25.89,74.92-3.56,74.92,57v8.07c0,24.7-14.75,38.95-39.48,38.95h-25.93C14.98,152.7.24,138.46.24,113.76v-4.75Z"/><path class="cls-1" d="M170.77,152.7c-24.97,0-39.25-13.77-39.25-38.71V38.71c0-24.94,14.27-38.71,39.25-38.71h26.64c24.97,0,39.25,13.77,39.25,38.71v75.28c0,24.94-14.27,38.71-39.25,38.71h-26.64ZM192.42,126.58c10.23,0,14.03-4.04,14.03-14.01V40.14c0-9.97-3.81-14.01-14.03-14.01h-16.89c-10.23,0-13.8,4.04-13.8,14.01v72.43c0,9.97,3.57,14.01,13.8,14.01h16.89Z"/><path class="cls-1" d="M270.19,152.7c-3.33,0-4.99-1.19-4.99-4.99V4.99c0-3.8,1.67-4.99,4.99-4.99h17.84c4.76,0,6.42,2.85,6.66,3.32l48.05,90.01h.95V4.99c0-3.8,1.67-4.99,5-4.99h19.74c3.33,0,5,1.19,5,4.99v142.73c0,3.8-1.67,4.99-5,4.99h-17.36c-5.23,0-7.37-4.51-7.61-4.75l-47.57-88.35h-.95v88.11c0,3.8-1.67,4.99-5,4.99h-19.74Z"/><path class="cls-1" d="M440.25,152.7c-3.33,0-5-1.19-5-4.99v-50.82L391.72,5.22c-1.43-3.09.71-5.22,3.33-5.22h25.21c3.09,0,4.28,1.42,5.71,4.99l23.79,57.71h1.67l23.31-57.71c1.19-3.56,2.62-4.99,5.71-4.99h25.21c3.09,0,5,2.14,3.33,5.22l-43.53,91.67v50.82c0,3.8-1.67,4.99-5,4.99h-20.22Z"/></g></svg>