<?xml version="1.0" encoding="UTF-8"?><svg id="Layer_2" xmlns="http://www.w3.org/2000/svg" viewBox="0 0 1620 248.38"><defs><style>.cls-1{fill:#fff;}</style></defs><g id="Layer_1-2"><path class="cls-1" d="M107.53,174.01c2.23,5.6,1.52,12.78.43,17.12-1.9,7.72-7.12,15.6-22.56,15.6-14.46,0-23.27-8.37-23.27-20.98v-22.45H0v17.83c0,51.64,40.61,67.25,84.15,67.25s76.32-14.24,81.82-52.89c2.83-20.01.76-33.11-.22-37.94-9.79-48.49-97.63-62.95-104.21-90.08-.91-4-.99-8.15-.22-12.18,1.63-7.45,6.69-15.55,21.15-15.55,13.59,0,21.47,8.37,21.47,20.98v14.35h57.79v-16.31C161.73,8.32,116.44.44,83.72.44,42.51.44,8.86,14.08,2.72,51.86c-1.63,10.33-1.9,19.57.54,31.2,10.06,47.3,92.31,60.99,104.27,90.95"/><path class="cls-1" d="M247.89,7.83l-42.95,231.53h62.57l31.69-210.11h1.3l30.82,210.11h62.24L350.91,7.77l-103.02.05ZM597.71,7.83l-28.54,177h-1.36l-28.49-177h-94.43l-5.11,231.53h57.95l1.41-208.15h1.3l38.65,208.15h58.77l38.71-208.1h1.25l1.47,208.1h57.9l-5.11-231.58-94.37.05Z"/><path class="cls-1" d="M860.29,173.58c2.23,5.6,1.52,12.78.43,17.12-1.9,7.72-7.12,15.6-22.56,15.6-14.46,0-23.27-8.37-23.27-20.98v-22.45h-62.14v17.83c0,51.64,40.61,67.25,84.15,67.25s76.32-14.24,81.82-52.89c2.83-20.01.76-33.11-.22-37.94-9.79-48.49-97.63-62.95-104.21-90.08-.91-4-.99-8.15-.22-12.18,1.63-7.45,6.69-15.55,21.15-15.55,13.59,0,21.47,8.37,21.47,20.98v14.35h57.79v-16.31c0-50.45-45.28-58.33-78.01-58.33-41.21,0-74.86,13.64-81,51.43-1.63,10.33-1.9,19.57.54,31.2,10.06,47.3,92.31,60.99,104.27,90.95"/><path class="cls-1" d="M1054.63,204.67c16.09,0,21.04-11.09,22.18-16.74.49-2.5.54-5.87.54-8.86V7.83h58.6v165.97c.01,5.08-.17,10.15-.54,15.22-4.08,43.22-38.22,57.24-80.78,57.24s-76.76-14.03-80.84-57.24c-.16-2.28-.6-10.98-.54-15.22V7.77h58.6v171.24c-.05,3.04.05,6.41.54,8.92,1.09,5.65,6.09,16.74,22.23,16.74M1337.75,7.83l3.15,181.73h-1.25l-53.28-181.73h-85.89v229.08h56.92l-3.15-188.04h1.25l57.13,188.04h82.47V7.83h-57.35ZM1537.53,202.28c16.74,0,22.61-10.6,23.65-16.85.49-2.56.54-5.82.54-8.7v-33.7h-23.76v-33.7h82.03v62.08c0,4.35-.11,7.5-.82,15.22-3.81,42.19-40.39,57.24-81.43,57.24s-77.58-15.06-81.43-57.24c-.65-7.72-.82-10.87-.82-15.22v-97.42c0-4.13.54-11.42.98-15.22,5.16-43.33,40.23-57.24,81.27-57.24s77.03,13.81,81.27,57.19c.76,7.39.54,15.22.54,15.22v7.77h-58.39v-12.99s0-5.44-.71-8.81c-1.09-5.11-5.44-16.85-23.16-16.85s-21.8,11.14-23.05,16.85c-.71,3.04-.98,7.18-.98,10.93v105.84c0,2.94.11,6.2.54,8.81,1.09,6.2,6.96,16.8,23.7,16.8"/></g></svg>